<?xml version="1.0" standalone="no"?>
<!DOCTYPE svg PUBLIC "-//W3C//DTD SVG 20010904//EN"
 "http://www.w3.org/TR/2001/REC-SVG-20010904/DTD/svg10.dtd">
<svg version="1.0" xmlns="http://www.w3.org/2000/svg"
 width="180.000000pt" height="180.000000pt" viewBox="0 0 180.000000 180.000000"
 preserveAspectRatio="xMidYMid meet">

<g transform="translate(0.000000,180.000000) scale(0.100000,-0.100000)"
fill="#A00" stroke="none">
<path d="M102 1779 c-26 -13 -55 -39 -70 -62 l-27 -41 0 -776 0 -776 27 -41
c16 -24 44 -49 70 -62 44 -21 50 -21 798 -21 748 0 754 0 798 21 26 13 54 38
70 62 l27 41 0 776 0 776 -27 41 c-16 24 -44 49 -70 62 -44 21 -50 21 -799 21
-751 0 -754 0 -797 -21z m619 -306 c101 -45 176 -146 198 -268 28 -152 5 -318
-65 -463 -47 -98 -159 -212 -256 -261 -61 -31 -71 -33 -127 -26 -302 35 -435
397 -271 740 49 101 148 221 167 202 2 -3 -11 -38 -30 -79 -64 -133 -85 -328
-51 -467 22 -88 79 -195 123 -232 20 -16 60 -37 89 -46 45 -14 62 -15 109 -5
71 15 98 33 123 83 73 142 81 436 16 589 -53 127 -163 184 -251 130 -58 -36
-65 -84 -23 -160 l19 -35 -26 -48 c-29 -51 -33 -53 -59 -34 -42 31 -36 162 12
251 15 27 49 74 77 104 l49 54 66 -4 c36 -3 86 -14 111 -25z m927 11 c30 -9
28 -22 -12 -88 -19 -32 -37 -76 -41 -99 -10 -67 -15 -77 -36 -77 -17 0 -19 7
-19 68 0 65 -1 69 -27 82 -40 18 -151 24 -202 10 -87 -23 -125 -96 -87 -168
20 -37 105 -117 206 -193 97 -72 172 -146 197 -192 38 -70 10 -232 -57 -336
-61 -96 -191 -191 -261 -191 -51 0 -186 41 -241 73 -40 23 -47 33 -53 67 -8
50 2 150 22 210 38 113 125 196 180 171 18 -8 22 -15 15 -28 -5 -10 -12 -35
-16 -55 -6 -32 -11 -38 -32 -38 -59 0 -114 -49 -114 -101 0 -71 92 -141 219
-168 147 -31 251 47 251 189 0 86 -23 115 -210 269 -138 114 -181 158 -210
213 -24 45 -25 79 -3 144 20 62 131 174 218 222 l60 33 115 -5 c63 -3 125 -8
138 -12z"/>
</g>
</svg>
